<?xml version="1.0" standalone="no"?>
<!DOCTYPE svg PUBLIC "-//W3C//DTD SVG 20010904//EN"
 "http://www.w3.org/TR/2001/REC-SVG-20010904/DTD/svg10.dtd">
<svg version="1.0" xmlns="http://www.w3.org/2000/svg"
 width="300.000000pt" height="300.000000pt" viewBox="0 0 300.000000 300.000000"
 preserveAspectRatio="xMidYMid meet">
<metadata>
Created by potrace 1.10, written by Peter Selinger 2001-2011
</metadata>
<g transform="translate(0.000000,300.000000) scale(0.100000,-0.100000)"
fill="#000000" stroke="none">
<path d="M1455 2784 c-16 -2 -65 -9 -109 -15 -115 -15 -267 -63 -380 -120
-584 -292 -823 -953 -545 -1513 60 -120 131 -215 234 -315 437 -423 1108 -478
1628 -134 91 60 261 228 316 313 66 101 130 242 159 348 23 88 26 114 26 277
0 164 -2 188 -27 276 -141 511 -600 859 -1167 883 -58 2 -118 2 -135 0z m341
-39 c394 -79 717 -324 878 -665 80 -170 117 -385 96 -562 -30 -262 -138 -486
-325 -673 -175 -175 -384 -285 -648 -342 -116 -25 -389 -25 -507 1 -848 184
-1237 1079 -762 1756 64 91 202 225 304 293 164 110 363 183 563 207 97 12
306 4 401 -15z"/>
<path d="M1433 1784 c-54 -27 -73 -69 -73 -160 0 -121 45 -178 139 -178 80 0
141 62 141 144 l0 30 -75 0 -75 0 0 -79 0 -80 -30 10 c-16 6 -41 24 -55 41
-22 26 -25 39 -25 105 0 87 17 124 66 148 38 18 60 19 102 4 32 -11 62 -47 62
-74 0 -8 7 -15 15 -15 19 0 19 3 -5 49 -33 65 -117 89 -187 55z m187 -208 c0
-34 -40 -88 -77 -103 l-33 -13 0 70 0 70 55 0 c51 0 55 -2 55 -24z"/>
<path d="M655 1620 l0 -170 123 0 122 0 0 46 0 45 -77 -2 c-73 -2 -78 -1 -81
19 -3 21 0 22 67 22 l71 0 0 40 0 40 -70 0 c-69 0 -70 1 -70 26 l0 26 80 -4
80 -3 0 43 0 42 -122 0 -123 0 0 -170z m75 110 c-12 -23 -30 -27 -30 -7 0 17
10 27 27 27 11 0 11 -5 3 -20z m4 -93 c8 -13 6 -22 -12 -39 l-22 -22 0 43 c0
44 13 51 34 18z"/>
<path d="M1000 1675 c0 -133 17 -183 72 -211 67 -35 133 -17 182 50 18 24 22
45 25 152 l3 124 -141 0 -141 0 0 -115z m228 -31 l3 -102 -31 -26 c-54 -45
-127 -27 -149 36 -15 43 -14 171 1 186 9 9 39 12 93 10 l80 -3 3 -101z"/>
<path d="M1750 1746 l0 -43 50 5 50 5 0 -87 0 -86 -50 0 -50 0 0 -45 0 -45
110 0 110 0 0 45 0 45 -50 0 -50 0 0 86 0 86 50 -4 50 -3 0 43 0 42 -110 0
-110 0 0 -44z"/>
<path d="M2100 1620 l0 -170 125 0 125 0 0 46 0 46 -80 -4 c-77 -3 -80 -2 -80
20 0 21 4 22 65 22 l65 0 0 40 0 40 -65 0 c-63 0 -65 1 -65 26 0 25 0 25 78
23 l77 -2 3 41 3 42 -125 0 -126 0 0 -170z m80 121 c0 -12 -29 -35 -36 -28
-11 10 5 37 21 37 8 0 15 -4 15 -9z m-5 -141 c-27 -30 -35 -25 -35 27 l0 48
27 -27 c26 -27 26 -28 8 -48z m-6 -79 c6 -10 7 -21 4 -25 -9 -8 -33 14 -33 30
0 20 18 17 29 -5z"/>
</g>
</svg>
