 <svg  version="1.0" xmlns="http://www.w3.org/2000/svg"  width="300.000000pt" height="300.000000pt" viewBox="0 0 300.000000 300.000000"  preserveAspectRatio="xMidYMid meet">  <g transform="translate(0.000000,300.000000) scale(0.100000,-0.100000)" fill="#056ffa" stroke="none"> <path d="M1316 2764 c-478 -89 -850 -420 -974 -864 -24 -87 -27 -111 -27 -275 0 -166 2 -188 28 -279 123 -442 480 -760 967 -862 117 -24 363 -24 480 0 269 57 487 171 666 350 232 233 347 526 331 845 -22 445 -313 836 -751 1011 -161 65 -252 82 -456 86 -135 2 -206 -1 -264 -12z m439 -40 c454 -77 803 -363 942 -769 125 -366 27 -785 -251 -1073 -237 -246 -542 -373 -896 -373 -222 0 -383 37 -569 131 -301 152 -503 390 -596 705 -36 121 -46 336 -21 468 88 466 469 823 971 911 109 19 310 19 420 0z"/> <path d="M1450 1827 c-46 -15 -70 -34 -101 -75 l-24 -33 -8 37 c-14 70 -23 74 -178 74 -137 0 -138 0 -158 -26 -18 -23 -21 -41 -21 -138 0 -96 3 -118 23 -156 63 -126 216 -140 297 -29 16 22 31 46 34 52 5 9 7 9 12 0 45 -96 128 -142 216 -120 91 23 157 139 122 214 -12 24 -13 36 -5 52 25 45 -44 135 -115 152 -47 10 -50 10 -94 -4z m119 -41 c45 -24 89 -106 57 -106 -9 0 -16 8 -16 19 0 25 -45 68 -81 76 -46 10 -86 -4 -119 -41 -27 -32 -30 -41 -30 -105 0 -43 6 -81 15 -99 17 -33 52 -60 77 -60 16 0 18 10 18 75 l0 75 75 0 75 0 0 -36 c0 -123 -141 -185 -235 -103 -55 49 -70 171 -29 250 31 60 128 88 193 55z m-289 -108 c-1 -145 -17 -189 -85 -219 -52 -23 -92 -19 -139 14 -45 32 -56 72 -56 202 l0 115 140 0 140 0 0 -112z m275 37 c38 -37 33 -55 -17 -55 -57 0 -88 -29 -88 -83 0 -26 -4 -37 -12 -35 -9 3 -14 31 -16 80 -3 72 -1 77 24 97 36 28 79 27 109 -4z"/> <path d="M1510 1535 c0 -56 3 -65 18 -65 28 0 63 30 78 66 24 58 20 64 -41 64 l-55 0 0 -65z"/> <path d="M637 1812 c-14 -16 -17 -44 -17 -189 0 -219 -5 -213 161 -213 108 0 117 2 137 23 26 27 29 91 7 121 -20 27 -20 119 0 136 23 19 20 95 -5 120 -18 18 -33 20 -143 20 -107 0 -126 -2 -140 -18z m267 -64 l-1 -43 -82 4 -81 3 0 -26 c0 -26 1 -26 70 -26 l70 0 0 -40 0 -40 -70 0 c-63 0 -70 -2 -70 -20 0 -18 7 -20 83 -20 l82 0 0 -45 0 -45 -127 0 -128 0 0 170 0 170 128 0 127 0 -1 -42z"/> <path d="M1731 1804 c-24 -30 -27 -80 -7 -106 7 -10 30 -25 50 -33 33 -14 37 -19 34 -47 -2 -26 -9 -33 -35 -40 -64 -16 -85 -97 -38 -143 22 -23 31 -25 125 -25 94 0 103 2 125 25 47 46 26 127 -38 143 -28 7 -32 12 -32 42 0 29 4 35 34 45 43 14 61 40 61 85 0 25 -7 43 -23 58 -21 20 -34 22 -129 22 -103 0 -107 -1 -127 -26z m239 -59 l0 -46 -50 7 -50 7 0 -87 0 -86 50 0 50 0 0 -45 0 -45 -110 0 -110 0 0 45 0 45 50 0 50 0 0 86 0 87 -50 -7 -50 -7 0 46 0 45 110 0 110 0 0 -45z"/> <path d="M2081 1804 c-19 -24 -21 -40 -21 -186 0 -155 1 -159 25 -183 23 -24 30 -25 140 -25 113 0 117 1 140 26 28 30 31 67 10 104 -19 33 -19 139 0 164 21 28 19 69 -6 100 -20 26 -22 26 -144 26 -122 0 -124 0 -144 -26z m269 -58 l0 -43 -80 5 -80 5 0 -27 c0 -25 1 -26 65 -26 l65 0 0 -40 0 -40 -65 0 c-58 0 -65 -2 -65 -20 0 -18 7 -20 80 -20 l80 0 0 -45 0 -45 -125 0 -125 0 0 173 0 172 125 -3 125 -3 0 -43z"/> </g> </svg> 